<?xml version="1.0" standalone="no"?>
<!DOCTYPE svg PUBLIC "-//W3C//DTD SVG 20010904//EN"
 "http://www.w3.org/TR/2001/REC-SVG-20010904/DTD/svg10.dtd">
<svg version="1.0" xmlns="http://www.w3.org/2000/svg"
 width="400.000000pt" height="400.000000pt" viewBox="0 0 400.000000 400.000000"
 preserveAspectRatio="xMidYMid meet">

<g transform="translate(0.000000,400.000000) scale(0.100000,-0.100000)"
fill="#000000" stroke="none">
<path d="M0 2000 l0 -2000 614 0 613 0 44 62 c123 176 349 434 457 523 49 41
61 56 61 80 1 44 -46 415 -53 422 -3 3 -40 0 -81 -6 -115 -19 -299 -17 -330 3
-53 35 -120 220 -169 469 l-22 109 -51 17 c-88 30 -127 67 -116 111 3 9 36 52
74 96 70 80 139 198 139 238 0 34 -20 51 -88 76 -118 43 -235 130 -275 205
-19 34 -22 56 -22 140 1 135 25 196 109 280 34 33 70 65 80 71 17 9 2 20 -110
85 -126 73 -129 75 -129 109 0 28 5 36 26 44 22 7 36 3 85 -27 33 -19 613
-351 1289 -737 677 -386 1236 -707 1243 -712 21 -17 14 -56 -13 -74 -25 -16
-28 -15 -125 40 -56 31 -104 56 -108 56 -4 0 -26 -22 -49 -49 -85 -99 -260
-191 -363 -191 -64 0 -75 -23 -74 -154 1 -168 55 -369 151 -560 80 -161 179
-297 412 -563 l142 -163 320 0 319 0 0 2000 0 2000 -2000 0 -2000 0 0 -2000z
m2366 1635 c163 -80 350 -254 522 -487 38 -51 46 -56 206 -127 187 -83 240
-122 281 -204 32 -68 41 -139 26 -219 -12 -60 -127 -530 -136 -555 -2 -8 -366
194 -952 529 -521 297 -954 546 -961 553 -11 10 5 28 90 94 56 45 180 136 273
203 94 67 190 138 215 158 93 77 170 102 290 95 60 -4 89 -12 146 -40z"/>
<path d="M1311 2372 c-15 -15 -38 -54 -52 -87 -20 -52 -23 -77 -23 -185 0
-106 3 -134 22 -181 54 -135 140 -156 201 -49 26 45 51 130 51 172 l0 28 408
2 407 3 0 25 0 25 -406 3 -406 2 -6 53 c-21 172 -119 267 -196 189z"/>
</g>
</svg>
